<svg id="Layer_1" enable-background="new 0 0 512 512" height="512" viewBox="0 0 512 512" width="512" xmlns="http://www.w3.org/2000/svg"><g id="Layer_2_00000008841378180516875610000018148162146876851632_"><g id="_20"><path d="m152.7 130.6c18.1 0 31.8 4.2 40.6 12.5 8.7 8.2 13 20.3 13 37.2v36.7c0 15.4-3.8 26.5-11.7 34-9.2 8.7-22.1 15.7-38.5 20.7h-.1l-52.8 16.7c-6.2 1.7-10.6 3.9-13.9 6.8-7 6.4-7 16.1-7 19.3v8.2c0 8.3 6.7 15 15 15h110.1v43.7h-183.7v-66.1c0-13.5 1.3-24.5 3.8-32.9 2.3-7.7 5.6-13.9 9.6-18.5 4.1-4.7 9.1-8.5 14.7-11.2 7.2-3.4 14.6-6.3 22.3-8.5l.3-.1 51.9-16.3c7.6-2 13.2-5.5 16.6-10.6 3.2-4.7 4.8-10.6 4.8-17.9 0-8.2-2.4-14.7-7.2-19.1-4.5-4.1-10.5-6.1-18.3-6.1h-83.6v-43.7h114.1m0-14.8h-115c-4.9 0-8.5 1.1-10.7 3.3s-3.3 5.8-3.4 10.7v45.6c0 4.9 1.1 8.5 3.3 10.7s5.8 3.3 10.7 3.3h84.6c3.9 0 6.6.7 8.2 2.1s2.3 4.1 2.3 8c0 4.2-.7 7.3-2.2 9.4-1.4 2.1-4.2 3.6-8.4 4.7l-52.1 16.5c-8.4 2.4-16.6 5.6-24.6 9.4-7.4 3.6-14.1 8.6-19.5 14.8-5.5 6.2-9.7 14.2-12.7 24s-4.5 22.2-4.5 37.2v67.1c0 4.9 1.1 8.5 3.3 10.7s5.8 3.3 10.7 3.3h185.7c4.9 0 8.5-1.1 10.7-3.3s3.3-5.8 3.3-10.7v-45.6c0-4.9-1.1-8.5-3.3-10.7s-5.8-3.3-10.7-3.3h-111.1v-8.2c0-4.2.7-6.9 2.1-8.2s4.1-2.5 8-3.5l53-16.8c18.7-5.7 33.5-13.8 44.5-24.2s16.4-25.4 16.4-44.9v-36.7c0-21.1-5.9-37.1-17.8-48.2s-28.8-16.5-50.8-16.5z"/><path d="m384.3 124.8c22.6 0 41.2 1.8 55.4 5.4 13.3 3.4 23.7 7.9 30.8 13.6 6.6 5.3 11 11.3 13.5 18.3 2.9 8.9 4.4 18.3 4.2 27.7v133c.1 9.4-1.3 18.7-4.2 27.6-2.4 7-6.8 12.9-13.4 18-7.1 5.6-17.5 10.1-30.9 13.5-14.2 3.6-32.8 5.4-55.4 5.4s-41.2-1.8-55.4-5.4c-13.4-3.4-23.8-7.9-30.9-13.5-6.2-4.6-10.9-10.9-13.6-18.2-3-8.8-4.5-18.1-4.4-27.5v-133c-.1-9.3 1.3-18.6 4.4-27.5 2.6-7.2 7.1-13.2 13.8-18.5 7.1-5.7 17.5-10.2 30.8-13.6 14.1-3.5 32.7-5.3 55.3-5.3m0 217.2c17.8 0 28.9-2.9 35.8-9.3 6.7-6.2 10.5-14.9 10.4-24v-104.9c0-9-3.8-17.6-10.4-23.6-6.9-6.4-17.9-9.3-35.8-9.3s-28.9 2.9-35.8 9.3c-6.7 6-10.5 14.6-10.4 23.7v104.9c-.1 9.1 3.7 17.8 10.4 24 6.9 6.3 18 9.1 35.8 9.2m0-232.2c-23.9 0-43.6 1.9-59.1 5.8s-27.6 9.4-36.5 16.4c-8.4 6.5-14.9 15.2-18.5 25.2-3.6 10.5-5.4 21.5-5.2 32.6v133c-.1 11.1 1.6 22.1 5.3 32.6 3.6 9.9 10.1 18.6 18.5 25 8.8 6.9 21 12.3 36.5 16.2s35.2 5.9 59.1 5.9 43.6-2 59.1-5.9 27.6-9.3 36.5-16.2c8.4-6.4 14.8-15 18.3-25 3.5-10.5 5.2-21.5 5.1-32.6v-133c.1-11.1-1.6-22.1-5.1-32.6-3.4-9.7-9.5-18.1-18.3-25.1s-21-12.5-36.5-16.4c-15.6-4-35.3-5.9-59.2-5.9zm0 217.2c-13.3 0-21.8-1.8-25.5-5.3-3.7-3.3-5.7-8.1-5.6-13.1v-104.8c-.1-4.8 2-9.5 5.6-12.7 3.8-3.5 12.3-5.3 25.5-5.3 13.3 0 21.8 1.8 25.5 5.3 3.6 3.2 5.7 7.8 5.7 12.7v104.9c.1 5-2 9.8-5.7 13.1-3.7 3.5-12.2 5.2-25.5 5.2z"/></g></g></svg>