<svg viewBox="0 0 512 512" xmlns="http://www.w3.org/2000/svg"><g id="Layer_2" data-name="Layer 2"><g id="Layer_1_copy_8" data-name="Layer 1 copy 8"><g id="_21" data-name="21"><path d="m407.9 187.18c-15.28-17-34.88-25.29-59.91-25.29-24.83 0-44.3 8.27-59.52 25.28-15.57 17.4-23.14 39.89-23.14 68.75s7.57 51.39 23.15 68.84c15.22 17.06 34.69 25.35 59.51 25.35 25 0 44.62-8.3 59.9-25.36 15.62-17.45 23.21-40 23.21-68.83s-7.59-51.34-23.2-68.74zm-25.44 115c-10.46 17.28-24.52 20.91-34.46 20.91s-23.91-3.66-34.28-21.07c-7.14-12-10.76-27.49-10.76-46.1 0-18.82 3.62-34.41 10.77-46.35 10.38-17.33 24.36-21 34.27-21s24 3.64 34.47 20.93c7.21 11.95 10.87 27.55 10.87 46.39s-3.67 34.33-10.88 46.27z"/><path d="m256 0c-141.38 0-256 114.62-256 256s114.62 256 256 256 256-114.62 256-256-114.62-256-256-256zm-24.34 342.28q0 16-16 16h-125.66q-16 0-16-16v-16.13a56.36 56.36 0 0 1 .31-6.76 22 22 0 0 1 2.61-6.84 28.49 28.49 0 0 1 7.08-8.38q28.58-23.81 48.56-42.87 2.76-2.76 7.53-7.37c3.17-3.08 5.56-5.43 7.14-7.07s3.56-3.69 5.92-6.15a60.33 60.33 0 0 0 5.3-6.15c1.18-1.63 2.41-3.48 3.69-5.53a22.42 22.42 0 0 0 2.69-5.84 20.66 20.66 0 0 0 .77-5.53q0-9.37-6.3-14.6t-15.68-5.22q-16.59 0-39.34 18.75-5 3.87-9.64 3.87-6.24 0-11.87-7l-10-12.29q-9.06-11.22 3.08-22.9 29.81-28.42 76.21-28.43 32.28 0 52.63 18.14t20.36 46.71a60.12 60.12 0 0 1 -5 25.13q-5 11-16.37 25a158.9 158.9 0 0 1 -19 19.13q-11.29 9.75-29.89 24.2h60.85q7.83 0 11.91 4.22t4.07 11.91zm185.17-9.52q-26.28 29.34-68.83 29.35-42.27 0-68.46-29.35t-26.2-76.84q0-47.47 26.2-76.75t68.46-29.28q42.56 0 68.84 29.28t26.27 76.75q-.01 47.49-26.28 76.84z"/><path d="m348 200.6q-14.91 0-24 15.14t-9 40.18q0 24.75 9.06 40t24 15.21q15 0 24.2-15.14t9.14-40q0-25-9.14-40.18t-24.26-15.21z"/><path d="m215.68 320.17h-60.85a12 12 0 0 1 -7.36-21.48c12.17-9.45 22.06-17.46 29.4-23.8a146.62 146.62 0 0 0 17.54-17.66c6.87-8.44 11.83-16 14.73-22.33a48.53 48.53 0 0 0 3.91-20.16c0-15.61-5.34-28-16.34-37.75-11.4-10.16-26-15.1-44.65-15.1-28 0-50.2 8.21-67.91 25.1-2.4 2.31-3.17 3.91-3.25 4.49a4.41 4.41 0 0 0 1.2 2.19l10 12.27a9.87 9.87 0 0 0 2.64 2.49 8 8 0 0 0 2.09-1.23c17.47-14.37 32.79-21.36 46.81-21.36 9.09 0 16.94 2.68 23.33 8 7 5.78 10.65 14 10.65 23.84a32.67 32.67 0 0 1 -1.21 8.74 34.49 34.49 0 0 1 -4.08 9c-1.41 2.26-2.79 4.34-4.12 6.18a70.61 70.61 0 0 1 -6.41 7.4q-3.56 3.72-6 6.2c-1.69 1.74-4.12 4.14-7.42 7.34-3.11 3-5.6 5.45-7.39 7.24l-.2.19c-13.45 12.83-30 27.44-49.16 43.41a16.77 16.77 0 0 0 -4.13 4.75 19.18 19.18 0 0 0 -1.35 3 49.4 49.4 0 0 0 -.19 5v16.13a8.69 8.69 0 0 0 .5 3.49 8.76 8.76 0 0 0 3.48.49h125.7a8.67 8.67 0 0 0 3.48-.49 8.69 8.69 0 0 0 .5-3.49v-18c0-2.09-.38-3.24-.71-3.58-.07-.07-.98-.51-3.23-.51z"/></g></g></g></svg>