<svg id="Layer_2_00000088828019791583343630000013885780770304495538_" enable-background="new 0 0 512 512" viewBox="0 0 512 512" xmlns="http://www.w3.org/2000/svg"><g id="Icon"><g id="_29"><path d="m362.7 414.8c-37.4 0-68.4-13.9-92.2-41.4-23.4-27.1-35.2-66.6-35.2-117.6s11.9-90.4 35.5-117c23.9-27 55.1-40.7 92.7-40.7s68.6 13.7 92 40.6c23 26.5 34.6 66.4 34.6 118.4s-11.9 91.8-35.4 117.9c-23.7 26.4-54.7 39.8-92 39.8zm0-217.5c-4.4 0-11.1 1.4-18.3 13.1-6.3 10.3-9.5 25.7-9.5 45.8 0 20 3.1 35.4 9.1 45.4 6.8 11.4 13.9 12.7 18.7 12.7s11.8-1.3 18.6-12.9c6-10.2 9.1-25.6 9.1-45.7s-3.2-35.4-9.5-45.5c-7.9-12.9-15.7-12.9-18.2-12.9zm-306.9 213.4c-15 0-25.1-12.1-30-36.1v-.1c-2.1-10.9-3.1-19-3.1-25 0-5.1.5-12.5 5.3-17.3 77.9-80.4 89.6-111.3 89.6-122.6 0-4.9-1-8.3-2.9-10.1-2-1.9-6.3-3-12-3-7.4 0-14.9 1.4-22.4 4.3-7.7 2.9-13.7 6-17.9 9.3-1.8 1.4-4 2.1-6.1 2.1-2.9 0-5.7-1.2-7.7-3.6-11.6-14-19.8-29-24.3-44.6-1.6-5.5-2.5-10.8-2.5-15.8s.9-10 2.6-14.7c3.4-10.5 15.2-18.8 36.9-26.4 19.3-6.7 39.9-10 61.3-10 84.7 0 102.5 50.1 102.5 92.1 0 26.1-8.9 52.8-26.4 79.2-11.6 17.5-24.7 33.6-39.1 48l56-2.2h.4c5.1 0 9.5 3.9 9.9 9.1 1.4 14.9 2.1 28 2.1 38.9 0 12.5-2.7 23.4-8 32.3-6.2 10.5-15.6 16-27.2 16z" fill="#003c72"/><path d="m192.8 400.7h-137c-9.6 0-16.4-9.3-20.2-28.1-1.9-10.2-2.9-17.9-2.9-23.1s.8-8.7 2.5-10.3c61.6-63.6 92.5-106.8 92.5-129.6 0-7.7-2-13.5-6-17.3s-10.3-5.8-19-5.8-17.3 1.7-26 5-15.5 6.9-20.4 10.7c-10.7-12.9-18.2-26.6-22.3-40.9-1.4-4.7-2.1-9-2.1-13s.7-7.8 2.1-11.4c2.2-7.1 12.5-13.9 30.8-20.2s37.6-9.5 58-9.5c61.6 0 92.5 27.4 92.5 82.1 0 24.2-8.3 48.8-24.8 73.7s-35.8 46.4-57.8 64.6l83.4-3.3c1.4 14.6 2.1 27.2 2.1 38 0 10.7-2.2 19.8-6.6 27.2-4.6 7.5-10.8 11.2-18.8 11.2zm169.9 4.1c-34.5 0-62.7-12.7-84.6-38s-32.8-62.3-32.8-111 11-85.5 33-110.4 50.4-37.4 85.2-37.4 63 12.4 84.4 37.1c21.5 24.8 32.2 62.1 32.2 111.9s-10.9 86.9-32.8 111.2c-21.9 24.4-50.1 36.6-84.6 36.6zm0-217.5c-10.6 0-19.5 6-26.8 17.9-7.3 12-10.9 29-10.9 51s3.5 38.9 10.5 50.6 16.1 17.5 27.2 17.5 20.2-5.9 27.2-17.8c7-11.8 10.5-28.8 10.5-50.8s-3.6-38.9-10.9-50.8c-7.3-11.7-16.2-17.6-26.8-17.6z" fill="#FFF"/></g></g></svg>
