<svg id="Layer_1" enable-background="new 0 0 512 512" height="512" viewBox="0 0 512 512" width="512" xmlns="http://www.w3.org/2000/svg"><g id="Layer_2_1_"><g id="Layer_1-2"><g id="_20"><path d="m206 161.8c18.2 5.8 30.5 18 30.5 41.8v25.2c0 10.5-1.5 19-4.5 25.8s-10.5 14-22.2 22.2l-38.5 26c-4 2.3-6 5-6 8.2v2.5h73.2c1.2 0 2 .5 2 1.5v37.5c0 1-.5 1.5-1.8 1.5h-133.7c-4.5 0-6.8-2.2-6.8-7v-22.5c0-9.8 2.2-17.5 6.5-23.2s12.8-13 25.2-22.2l50.2-36.2c8-6 10-11.2 10-22.5v-5c0-14-7-18.2-32-18.2h-49.1c-2.2 0-3.5-1-3.5-3.2v-25c0-4.2 1.8-6 6-7.2 14.8-3.2 32.2-4.8 52.5-4.8 16.8-.2 29 .8 42 4.8z"/><path d="m398.5 178c11.8 16 15.2 38.5 15.2 78.5 0 39.8-3.5 62-15.2 78-11.8 15.8-30 20.8-61.2 20.8-31.8 0-49.5-5-61.5-20.8-11.8-16-15-38.2-15-78 0-40 3.5-62.5 15.2-78.5s29.5-21.2 61.2-21.2c31.3 0 49.6 5.2 61.3 21.2zm-85.5 125c4 8 12 12 24.2 12 12 0 20-4 24-12 4.2-8.2 6.2-23.8 6.2-46.5 0-23.2-2-38.8-6.2-47-4-8.2-12-12.5-24-12.5s-20 4.2-24.2 12.5c-4 8.2-6 23.8-6 47 0 23 2 38.5 6 46.5z"/></g></g></g></svg>